<svg id="apple-app-store" xmlns="http://www.w3.org/2000/svg" viewBox="0 0 214.3 74.4"><defs><style>.cls-1{fill:#000;stroke:#000;stroke-miterlimit:10;}.cls-2{fill:#fff;}</style></defs><title>apple-app-store-button</title><path class="cls-1" d="M213.7,63.3c0,6.5-4.7,10.5-11.2,10.5H12.6A11.7,11.7,0,0,1,.9,62V12.6A11.7,11.7,0,0,1,12.6.9H202.5c6.5,0,11.2,5.2,11.2,11.7Z"/><path class="cls-2" d="M68.1,31.8,60.4,54.6h3l2.4-7.2h8.1l2.4,7.2h3.1L71.7,31.8ZM66.4,45.1l2.2-6.6c.4-1.4.8-2.8,1.1-4.1h.1c.3,1.3.7,2.7,1.2,4.2l2.3,6.6Z"/><path class="cls-2" d="M62.8,22.9H67l1.3,3.8H70l-4.1-12H64L60,26.6h1.6Zm1.5-4.7c.2-.7.4-1.5.6-2.2h.1c.2.7.4,1.4.6,2.2l1.2,3.4H63.1Z"/><path class="cls-2" d="M168,21.5a1.9,1.9,0,0,1,.1-.7,2.3,2.3,0,0,1,2.1-1.6c1.5,0,2,1.2,2,2.5v5h1.6V21.5c0-3-1.8-3.7-3-3.7a3,3,0,0,0-1.6.4,2.8,2.8,0,0,0-1.1,1.1h0V14h-1.6V26.6H168Z"/><path class="cls-2" d="M139.2,26.8h0a4.2,4.2,0,0,0,4.3-4.6,4.1,4.1,0,0,0-4.1-4.4,4.2,4.2,0,0,0-4.3,4.6,4.1,4.1,0,0,0,4.1,4.4m.1-7.8c1.8,0,2.6,1.8,2.6,3.3s-1.1,3.4-2.6,3.4h0c-1.5,0-2.6-1.4-2.6-3.3s.8-3.3,2.6-3.3"/><rect class="cls-2" x="93.9" y="14" width="1.6" height="12.6"/><path class="cls-2" d="M180.2,26.8a7,7,0,0,0,2.9-.6l-.3-1.1a5.6,5.6,0,0,1-2.4.4,2.7,2.7,0,0,1-2.9-3h6a3.9,3.9,0,0,0,.1-.7c0-1.6-.7-4-3.5-4s-4,2-4,4.6a4,4,0,0,0,4.2,4.3m-.3-7.8a2.2,2.2,0,0,1,2.1,2.5h-4.5a2.6,2.6,0,0,1,2.4-2.5"/><path class="cls-2" d="M90.1,16.6h0a1,1,0,1,0-1-1,.9.9,0,0,0,1,1"/><path class="cls-2" d="M75.4,26.6,78.7,18H77.1l-1.7,4.8c-.3.8-.5,1.5-.7,2.2h-.1c-.2-.7-.4-1.4-.7-2.2L72.3,18H70.6l3.3,8.6Z"/><rect class="cls-2" x="89.4" y="18" width="1.6" height="8.59"/><path class="cls-2" d="M108.1,37.9a6.3,6.3,0,0,0-5.8,3.2h-.1l-.2-2.8H99.4c.1,1.6.1,3.2.1,5.3V61.3h3V52.4h.1a5.7,5.7,0,0,0,5,2.6c3.8,0,7.4-2.9,7.4-8.8s-3-8.3-7-8.3m-1,14.8a4.6,4.6,0,0,1-4.4-3.5,4.8,4.8,0,0,1-.1-1.2V45.1a7.1,7.1,0,0,1,.2-1.2,4.8,4.8,0,0,1,4.5-3.7c3.1,0,4.8,2.8,4.8,6.1s-1.8,6.3-5,6.3"/><path class="cls-2" d="M149.6,19.1c1.5,0,2,1.2,2,2.6v5h1.6V21.5c0-2.9-1.8-3.7-3-3.7a3.2,3.2,0,0,0-2.8,1.6h0V18h-1.4c.1.7.1,1.4.1,2.3v6.3h1.6V21.5a2.3,2.3,0,0,1,.1-.7,2.3,2.3,0,0,1,2.1-1.6"/><path class="cls-2" d="M155.8,37.9c-4.5,0-8.1,3.2-8.1,8.7s3.5,8.4,7.9,8.4h0c3.9,0,8.1-2.6,8.1-8.7s-3.2-8.4-7.9-8.4m-.1,14.9h0c-2.9,0-4.9-2.7-4.9-6.3s1.5-6.4,5-6.4,4.9,3.5,4.9,6.3-2.1,6.4-5,6.4"/><path class="cls-2" d="M130.5,41.7c-3.1-1.2-4.5-2.3-4.5-4.4s1.2-3.4,4.3-3.4a8.4,8.4,0,0,1,4.3,1.1l.8-2.4a10.7,10.7,0,0,0-5-1.1c-4.4,0-7.4,2.6-7.4,6.2s2.3,5.1,6,6.4,4.3,2.4,4.3,4.5-1.8,3.9-4.8,3.9a10.3,10.3,0,0,1-5.2-1.5l-.8,2.4a11.8,11.8,0,0,0,5.8,1.5c5.4,0,8-3.1,8-6.6s-1.9-5.2-5.8-6.7"/><path class="cls-2" d="M142.7,34.3l-2.9.9v3h-2.5v2.3h2.5v8.9a6.4,6.4,0,0,0,1.1,4.3,4.3,4.3,0,0,0,3.2,1.3,8.1,8.1,0,0,0,2.6-.4V52.3l-1.7.2c-1.7,0-2.2-1.2-2.2-3.2V40.5h4.3V38.2h-4.3Z"/><path class="cls-2" d="M189.1,45.6c0-3-1.4-7.7-6.7-7.7s-7.7,3.9-7.7,8.8,3,8.3,8.1,8.3a13.3,13.3,0,0,0,5.5-1l-.5-2.1a10.6,10.6,0,0,1-4.5.8c-3,0-5.5-1.7-5.6-5.7H189a7.2,7.2,0,0,0,.1-1.4m-11.5-.7c.2-2.1,1.5-4.8,4.6-4.8s4.1,2.9,4.1,4.8Z"/><path class="cls-2" d="M169,41.4h-.1V38.2h-2.6c.1,1.5.1,3.2.1,5.1V54.6h3V45.8a9.2,9.2,0,0,1,.1-1.4c.4-2.2,1.9-3.8,4-3.8h1V37.9h-.8a5,5,0,0,0-4.6,3.6"/><path class="cls-2" d="M162,16l-1.5.5V18h-1.3v1.2h1.3v4.7a3.4,3.4,0,0,0,.6,2.3,2.2,2.2,0,0,0,1.7.7l1.4-.2V25.4h-.9c-.9,0-1.2-.6-1.2-1.7V19.2h2.2V18H162Z"/><path class="cls-2" d="M85.1,25.6h.1v1.1h1.4a14.4,14.4,0,0,1-.1-2.1V21.4c0-1.7-.6-3.5-3.3-3.5a5.6,5.6,0,0,0-2.8.7l.4,1A4.1,4.1,0,0,1,83,19a1.8,1.8,0,0,1,2,2v.2c-3.3,0-5.2,1.1-5.2,3.2a2.4,2.4,0,0,0,2.6,2.5,3.2,3.2,0,0,0,2.6-1.3m-3.7-1.4c0-1.7,1.9-2,3.6-1.9v1.5a1.6,1.6,0,0,1-.1.5,2.2,2.2,0,0,1-2.1,1.4,1.4,1.4,0,0,1-1.5-1.5"/><path class="cls-2" d="M111.9,17.8a3.2,3.2,0,0,0-2.9,1.6h0V14h-1.6V24.4c0,.8,0,1.6-.1,2.2h1.3V25.2h0a3.1,3.1,0,0,0,2.9,1.6c1.9,0,3.9-1.5,3.9-4.6s-1.5-4.4-3.6-4.4m-.6,7.7a2.4,2.4,0,0,1-2.3-1.8,2.9,2.9,0,0,1-.1-.6V21.6a2.6,2.6,0,0,1,2.4-2.6c1.7,0,2.6,1.5,2.6,3.2s-1,3.3-2.6,3.3"/><path class="cls-2" d="M103,25.6h.1v1.1h1.4a14.4,14.4,0,0,1-.1-2.1V21.4c0-1.7-.6-3.5-3.3-3.5a5.6,5.6,0,0,0-2.8.7l.4,1A4.1,4.1,0,0,1,101,19a1.8,1.8,0,0,1,2,2v.2c-3.3,0-5.2,1.1-5.2,3.2a2.4,2.4,0,0,0,2.6,2.5,3.2,3.2,0,0,0,2.6-1.3m-3.7-1.4c0-1.7,1.9-2,3.6-1.9v1.5a1.6,1.6,0,0,1-.1.5,2.2,2.2,0,0,1-2.1,1.4,1.4,1.4,0,0,1-1.5-1.5"/><rect class="cls-2" x="117.8" y="14" width="1.6" height="12.6"/><path class="cls-2" d="M126,26.8a7,7,0,0,0,2.9-.6l-.3-1.1a5.6,5.6,0,0,1-2.4.4,2.7,2.7,0,0,1-2.9-3h6a3.8,3.8,0,0,0,.1-.7c0-1.6-.7-4-3.5-4s-4,2-4,4.6a4,4,0,0,0,4.2,4.3m-.3-7.8a2.2,2.2,0,0,1,2.1,2.5h-4.5a2.6,2.6,0,0,1,2.4-2.5"/><path class="cls-2" d="M90.1,37.9A6.3,6.3,0,0,0,84.3,41h-.1L84,38.2H81.4c.1,1.6.1,3.2.1,5.3V61.3h3V52.4h.1a5.7,5.7,0,0,0,5,2.6c3.8,0,7.4-2.9,7.4-8.8s-3-8.3-7-8.3m-1,14.8a4.6,4.6,0,0,1-4.4-3.5,4.8,4.8,0,0,1-.1-1.2V45.1a7.1,7.1,0,0,1,.2-1.2,4.8,4.8,0,0,1,4.5-3.7c3.1,0,4.8,2.8,4.8,6.1s-1.8,6.3-5,6.3"/><path class="cls-2" d="M45.4,13.3H28.8a3.5,3.5,0,0,0-3.3,3.6V54.3a3.5,3.5,0,0,0,3.3,3.6H45.4a3.5,3.5,0,0,0,3.3-3.6V16.9a3.5,3.5,0,0,0-3.3-3.6m-11.7,3a.3.3,0,0,1,.3-.3h6.6a.3.3,0,0,1,0,.6H33.9a.3.3,0,0,1-.3-.3m3.5,40.3a1.7,1.7,0,1,1,1.7-1.7,1.7,1.7,0,0,1-1.7,1.7m9.4-4.5H27.7V19.2H46.5Z"/></svg>