<?xml version="1.0" encoding="UTF-8" standalone="no"?>
<!-- Created with Inkscape (http://www.inkscape.org/) -->
<svg id="svg2" xmlns:rdf="http://www.w3.org/1999/02/22-rdf-syntax-ns#" xmlns="http://www.w3.org/2000/svg" xml:space="preserve" height="40.019" viewBox="0 0 135.71649 40.018951" width="135.72" version="1.1" xmlns:cc="http://creativecommons.org/ns#" xmlns:dc="http://purl.org/dc/elements/1.1/"><metadata id="metadata8"><rdf:RDF><cc:Work rdf:about=""><dc:format>image/svg+xml</dc:format><dc:type rdf:resource="http://purl.org/dc/dcmitype/StillImage"/><dc:title/></cc:Work></rdf:RDF></metadata><defs id="defs6"><linearGradient id="linearGradient50" y2="166.51" gradientUnits="userSpaceOnUse" x2="15.017" gradientTransform="matrix(.8 0 0 -.8 0 161.6)" y1="183.29" x1="31.8"><stop id="stop52" stop-color="#000" offset="0"/><stop id="stop54" stop-color="#000" offset=".0066"/><stop id="stop56" stop-color="#00beff" offset=".2601"/><stop id="stop58" stop-color="#00d2ff" offset=".5122"/><stop id="stop60" stop-color="#00dfff" offset=".7604"/><stop id="stop62" stop-color="#00e3ff" offset="1"/></linearGradient><linearGradient id="linearGradient68" y2="172" gradientUnits="userSpaceOnUse" x2="19.638" gradientTransform="matrix(.8 0 0 -.8 0 161.6)" y1="172" x1="43.834"><stop id="stop70" stop-color="#ffe000" offset="0"/><stop id="stop72" stop-color="#ffbd00" offset=".4087"/><stop id="stop74" stop-color="#ffa500" offset=".7754"/><stop id="stop76" stop-color="#ff9c00" offset="1"/></linearGradient><linearGradient id="linearGradient82" y2="146.95" gradientUnits="userSpaceOnUse" x2="12.069" gradientTransform="matrix(.8 0 0 -.8 0 161.6)" y1="169.7" x1="34.827"><stop id="stop84" stop-color="#ff3a44" offset="0"/><stop id="stop86" stop-color="#c31162" offset="1"/></linearGradient><linearGradient id="linearGradient92" y2="181.66" gradientUnits="userSpaceOnUse" x2="27.46" gradientTransform="matrix(.8 0 0 -.8 0 161.6)" y1="191.82" x1="17.297"><stop id="stop94" stop-color="#32a071" offset="0"/><stop id="stop96" stop-color="#2da771" offset=".0685"/><stop id="stop98" stop-color="#15cf74" offset=".4762"/><stop id="stop100" stop-color="#06e775" offset=".8009"/><stop id="stop102" stop-color="#00f076" offset="1"/></linearGradient><clipPath id="clipPath110" clipPathUnits="userSpaceOnUse"><path id="path112" d="m0 0h124v48h-124v-48z"/></clipPath><mask id="mask114" height="1" width="1" y="0" x="0" maskUnits="userSpaceOnUse"><g id="g116"><g id="g118" clip-path="url(#clipPath110)"><path id="path120" d="m0 0h124v48h-124v-48z" fill-opacity=".2"/></g></g></mask><clipPath id="clipPath126" clipPathUnits="userSpaceOnUse"><path id="path128" d="m0 0h124v48h-124v-48z"/></clipPath><clipPath id="clipPath130" clipPathUnits="userSpaceOnUse"><path id="path132" d="m0 0h124v48h-124v-48z"/></clipPath><pattern id="pattern134" height="48" width="124" patternUnits="userSpaceOnUse" patternTransform="matrix(1,0,0,-1,0,48)" y="0" x="0"><g id="g138"><g id="g140" clip-path="url(#clipPath130)"><g id="g142"><path id="path144" d="m29.625 20.695-11.613-6.597c-0.649-0.371-1.231-0.344-1.606-0.008l-0.058-0.063 0.058-0.058c0.375-0.336 0.957-0.36 1.606 0.011l11.687 6.641-0.074 0.074z"/></g></g></g></pattern><clipPath id="clipPath158" clipPathUnits="userSpaceOnUse"><path id="path160" d="m0 0h124v48h-124v-48z"/></clipPath><mask id="mask162" height="1" width="1" y="0" x="0" maskUnits="userSpaceOnUse"><g id="g164"><g id="g166" clip-path="url(#clipPath158)"><path id="path168" d="m0 0h124v48h-124v-48z" fill-opacity="0.12"/></g></g></mask><clipPath id="clipPath174" clipPathUnits="userSpaceOnUse"><path id="path176" d="m0 0h124v48h-124v-48z"/></clipPath><clipPath id="clipPath178" clipPathUnits="userSpaceOnUse"><path id="path180" d="m0 0h124v48h-124v-48z"/></clipPath><pattern id="pattern182" height="48" width="124" patternUnits="userSpaceOnUse" patternTransform="matrix(1,0,0,-1,0,48)" y="0" x="0"><g id="g186"><g id="g188" clip-path="url(#clipPath178)"><g id="g190"><path id="path192" d="m16.348 14.145c-0.235 0.246-0.371 0.628-0.371 1.125v-0.118c0-0.496 0.136-0.879 0.371-1.125l0.058 0.063-0.058 0.055z"/></g></g></g></pattern><clipPath id="clipPath206" clipPathUnits="userSpaceOnUse"><path id="path208" d="m0 0h124v48h-124v-48z"/></clipPath><mask id="mask210" height="1" width="1" y="0" x="0" maskUnits="userSpaceOnUse"><g id="g212"><g id="g214" clip-path="url(#clipPath206)"><path id="path216" d="m0 0h124v48h-124v-48z" fill-opacity="0.12"/></g></g></mask><clipPath id="clipPath222" clipPathUnits="userSpaceOnUse"><path id="path224" d="m0 0h124v48h-124v-48z"/></clipPath><clipPath id="clipPath226" clipPathUnits="userSpaceOnUse"><path id="path228" d="m0 0h124v48h-124v-48z"/></clipPath><pattern id="pattern230" height="48" width="124" patternUnits="userSpaceOnUse" patternTransform="matrix(1,0,0,-1,0,48)" y="0" x="0"><g id="g234"><g id="g236" clip-path="url(#clipPath226)"><g id="g238"><path id="path240" d="m33.613 22.961-3.988-2.266 0.074-0.074 3.914 2.223c0.559 0.316 0.836 0.734 0.836 1.156-0.047-0.379-0.332-0.75-0.836-1.039z"/></g></g></g></pattern><clipPath id="clipPath254" clipPathUnits="userSpaceOnUse"><path id="path256" d="m0 0h124v48h-124v-48z"/></clipPath><mask id="mask258" height="1" width="1" y="0" x="0" maskUnits="userSpaceOnUse"><g id="g260"><g id="g262" clip-path="url(#clipPath254)"><path id="path264" d="m0 0h124v48h-124v-48z" fill-opacity=".25"/></g></g></mask><clipPath id="clipPath270" clipPathUnits="userSpaceOnUse"><path id="path272" d="m0 0h124v48h-124v-48z"/></clipPath><clipPath id="clipPath274" clipPathUnits="userSpaceOnUse"><path id="path276" d="m0 0h124v48h-124v-48z"/></clipPath><pattern id="pattern278" height="48" width="124" patternUnits="userSpaceOnUse" patternTransform="matrix(1,0,0,-1,0,48)" y="0" x="0"><g id="g282"><g id="g284" clip-path="url(#clipPath274)"><g id="g286"><path id="path288" d="m18.012 33.902 15.601-8.863c0.508-0.289 0.789-0.66 0.836-1.039 0 0.418-0.277 0.836-0.836 1.156l-15.601 8.864c-1.117 0.632-2.035 0.105-2.035-1.176v-0.114c0 1.278 0.918 1.805 2.035 1.172z" fill="#fff"/></g></g></g></pattern></defs><g id="g10" transform="matrix(1.25 0 0 -1.25 -9.4248 49.85)"><g id="g12" transform="matrix(1.0024 0 0 .99073 -.29665 0)"><path id="path14" d="m112 8h-100c-2.199 0-4 1.801-4 4v24c0 2.199 1.801 4 4 4h100c2.199 0 4-1.801 4-4v-24c0-2.199-1.801-4-4-4z"/><path id="path16" d="m112 39.359c1.852 0 3.359-1.507 3.359-3.359v-24c0-1.852-1.507-3.359-3.359-3.359h-100c-1.852 0-3.359 1.507-3.359 3.359v24c0 1.852 1.507 3.359 3.359 3.359h100m0 0.641h-100c-2.199 0-4-1.801-4-4v-24c0-2.199 1.801-4 4-4h100c2.199 0 4 1.801 4 4v24c0 2.199-1.801 4-4 4z" fill="#a6a6a6"/><g id="g18" transform="matrix(1,0,0,-1,0,48)"><path id="path20" d="m45.934 16.195c0 0.668-0.2 1.203-0.594 1.602-0.453 0.473-1.043 0.711-1.766 0.711-0.691 0-1.281-0.242-1.765-0.719-0.485-0.484-0.727-1.078-0.727-1.789s0.242-1.305 0.727-1.785c0.484-0.481 1.074-0.723 1.765-0.723 0.344 0 0.672 0.071 0.985 0.203 0.312 0.133 0.566 0.313 0.75 0.535l-0.418 0.422c-0.321-0.379-0.758-0.566-1.317-0.566-0.504 0-0.941 0.176-1.312 0.531-0.367 0.356-0.551 0.817-0.551 1.383s0.184 1.031 0.551 1.387c0.371 0.351 0.808 0.531 1.312 0.531 0.535 0 0.985-0.18 1.34-0.535 0.234-0.235 0.367-0.559 0.402-0.973h-1.742v-0.578h2.324c0.028 0.125 0.036 0.246 0.036 0.363z" stroke="#fff" stroke-miterlimit="10" stroke-width=".16" fill="#fff"/></g><g id="g22" transform="matrix(1,0,0,-1,0,48)"><path id="path24" d="m49.621 14.191h-2.183v1.52h1.968v0.578h-1.968v1.52h2.183v0.589h-2.801v-4.796h2.801v0.589z" stroke="#fff" stroke-miterlimit="10" stroke-width=".16" fill="#fff"/></g><g id="g26" transform="matrix(1,0,0,-1,0,48)"><path id="path28" d="m52.223 18.398h-0.618v-4.207h-1.339v-0.589h3.297v0.589h-1.34v4.207z" stroke="#fff" stroke-miterlimit="10" stroke-width=".16" fill="#fff"/></g><g id="g30" transform="matrix(1,0,0,-1,0,48)"><path id="path32" d="m55.949 18.398v-4.796h0.617v4.796h-0.617z" stroke="#fff" stroke-miterlimit="10" stroke-width=".16" fill="#fff"/></g><g id="g34" transform="matrix(1,0,0,-1,0,48)"><path id="path36" d="m59.301 18.398h-0.613v-4.207h-1.344v-0.589h3.301v0.589h-1.344v4.207z" stroke="#fff" stroke-miterlimit="10" stroke-width=".16" fill="#fff"/></g><g id="g38" transform="matrix(1,0,0,-1,0,48)"><path id="path40" d="m66.887 17.781c-0.473 0.485-1.059 0.727-1.758 0.727-0.703 0-1.289-0.242-1.762-0.727-0.472-0.484-0.707-1.078-0.707-1.781s0.235-1.297 0.707-1.781c0.473-0.485 1.059-0.727 1.762-0.727 0.695 0 1.281 0.242 1.754 0.731 0.476 0.488 0.711 1.078 0.711 1.777 0 0.703-0.235 1.297-0.707 1.781zm-3.063-0.402c0.356 0.359 0.789 0.539 1.305 0.539 0.512 0 0.949-0.18 1.301-0.539 0.355-0.359 0.535-0.82 0.535-1.379s-0.18-1.02-0.535-1.379c-0.352-0.359-0.789-0.539-1.301-0.539-0.516 0-0.949 0.18-1.305 0.539-0.355 0.359-0.535 0.82-0.535 1.379s0.18 1.02 0.535 1.379z" stroke="#fff" stroke-miterlimit="10" stroke-width=".16" fill="#fff"/></g><g id="g42" transform="matrix(1,0,0,-1,0,48)"><path id="path44" d="m68.461 18.398v-4.796h0.75l2.332 3.73h0.027l-0.027-0.922v-2.808h0.617v4.796h-0.644l-2.442-3.914h-0.027l0.027 0.926v2.988h-0.613z" stroke="#fff" stroke-miterlimit="10" stroke-width=".16" fill="#fff"/></g><path id="path46" d="m62.508 22.598c-1.879 0-3.414-1.43-3.414-3.403 0-1.957 1.535-3.402 3.414-3.402 1.883 0 3.418 1.445 3.418 3.402 0 1.973-1.535 3.403-3.418 3.403zm0-5.465c-1.031 0-1.918 0.851-1.918 2.062 0 1.227 0.887 2.063 1.918 2.063s1.922-0.836 1.922-2.063c0-1.211-0.891-2.062-1.922-2.062zm-7.449 5.465c-1.883 0-3.414-1.43-3.414-3.403 0-1.957 1.531-3.402 3.414-3.402 1.882 0 3.414 1.445 3.414 3.402 0 1.973-1.532 3.403-3.414 3.403zm0-5.465c-1.032 0-1.922 0.851-1.922 2.062 0 1.227 0.89 2.063 1.922 2.063 1.031 0 1.918-0.836 1.918-2.063 0-1.211-0.887-2.062-1.918-2.062zm-8.864 4.422v-1.446h3.453c-0.101-0.808-0.371-1.402-0.785-1.816-0.504-0.5-1.289-1.055-2.668-1.055-2.125 0-3.789 1.715-3.789 3.84s1.664 3.84 3.789 3.84c1.149 0 1.985-0.449 2.602-1.031l1.019 1.019c-0.863 0.824-2.011 1.457-3.621 1.457-2.914 0-5.363-2.371-5.363-5.285s2.449-5.285 5.363-5.285c1.575 0 2.758 0.516 3.688 1.484 0.953 0.953 1.25 2.293 1.25 3.375 0 0.336-0.028 0.645-0.078 0.903h-4.86zm36.246-1.121c-0.281 0.761-1.148 2.164-2.914 2.164-1.75 0-3.207-1.379-3.207-3.403 0-1.906 1.442-3.402 3.375-3.402 1.563 0 2.465 0.953 2.836 1.508l-1.16 0.773c-0.387-0.566-0.914-0.941-1.676-0.941-0.757 0-1.3 0.347-1.648 1.031l4.551 1.883-0.157 0.387zm-4.64-1.133c-0.039 1.312 1.019 1.984 1.777 1.984 0.594 0 1.098-0.297 1.266-0.722l-3.043-1.262zm-3.699-3.301h1.496v10h-1.496v-10zm-2.45 5.84h-0.05c-0.336 0.398-0.977 0.758-1.789 0.758-1.704 0-3.262-1.496-3.262-3.414 0-1.907 1.558-3.391 3.262-3.391 0.812 0 1.453 0.363 1.789 0.773h0.05v-0.488c0-1.301-0.695-2-1.816-2-0.914 0-1.481 0.66-1.715 1.215l-1.301-0.543c0.375-0.902 1.368-2.012 3.016-2.012 1.754 0 3.234 1.032 3.234 3.543v6.11h-1.418v-0.551zm-1.711-4.707c-1.031 0-1.894 0.863-1.894 2.051 0 1.199 0.863 2.074 1.894 2.074 1.016 0 1.817-0.875 1.817-2.074 0-1.188-0.801-2.051-1.817-2.051zm19.504 8.867h-3.578v-10h1.492v3.789h2.086c1.657 0 3.282 1.199 3.282 3.106 0 1.906-1.629 3.105-3.282 3.105zm0.039-4.82h-2.125v3.429h2.125c1.114 0 1.75-0.925 1.75-1.714 0-0.774-0.636-1.715-1.75-1.715zm9.223 1.437c-1.078 0-2.199-0.476-2.66-1.531l1.324-0.555c0.285 0.555 0.809 0.735 1.363 0.735 0.774 0 1.559-0.465 1.571-1.286v-0.105c-0.27 0.156-0.848 0.387-1.559 0.387-1.426 0-2.879-0.785-2.879-2.25 0-1.34 1.168-2.203 2.481-2.203 1.004 0 1.558 0.453 1.906 0.98h0.051v-0.773h1.441v3.836c0 1.773-1.324 2.765-3.039 2.765zm-0.18-5.48c-0.488 0-1.168 0.242-1.168 0.847 0 0.774 0.848 1.071 1.582 1.071 0.657 0 0.965-0.145 1.364-0.336-0.117-0.926-0.914-1.582-1.778-1.582zm8.469 5.261-1.715-4.335h-0.051l-1.773 4.335h-1.609l2.664-6.058-1.52-3.371h1.559l4.105 9.429h-1.66zm-13.453-6.398h1.496v10h-1.496v-10z" fill="#fff"/><g id="g48"><path id="path64" d="m16.348 33.969c-0.235-0.246-0.371-0.629-0.371-1.125v-17.692c0-0.496 0.136-0.879 0.371-1.125l0.058-0.054 9.914 9.91v0.234l-9.914 9.91-0.058-0.058z" fill="url(#linearGradient50)"/></g><g id="g66"><path id="path78" d="m29.621 20.578-3.301 3.305v0.234l3.305 3.305 0.074-0.043 3.914-2.227c1.117-0.632 1.117-1.672 0-2.308l-3.914-2.223-0.078-0.043z" fill="url(#linearGradient68)"/></g><g id="g80"><path id="path88" d="m29.699 20.621-3.379 3.379-9.972-9.973c0.371-0.39 0.976-0.437 1.664-0.047l11.687 6.641" fill="url(#linearGradient82)"/></g><g id="g90"><path id="path104" d="m29.699 27.379-11.687 6.641c-0.688 0.386-1.293 0.339-1.664-0.051l9.972-9.969 3.379 3.379z" fill="url(#linearGradient92)"/></g><g id="g106"><g id="g122" mask="url(#mask114)"><g id="g146"><g id="g148" clip-path="url(#clipPath126)"><g id="g150"><path id="path152" d="m0 0h124v48h-124v-48z" fill="url(#pattern134)"/></g></g></g></g></g><g id="g154"><g id="g170" mask="url(#mask162)"><g id="g194"><g id="g196" clip-path="url(#clipPath174)"><g id="g198"><path id="path200" d="m0 0h124v48h-124v-48z" fill="url(#pattern182)"/></g></g></g></g></g><g id="g202"><g id="g218" mask="url(#mask210)"><g id="g242"><g id="g244" clip-path="url(#clipPath222)"><g id="g246"><path id="path248" d="m0 0h124v48h-124v-48z" fill="url(#pattern230)"/></g></g></g></g></g><g id="g250"><g id="g266" mask="url(#mask258)"><g id="g290"><g id="g292" clip-path="url(#clipPath270)"><g id="g294"><path id="path296" d="m0 0h124v48h-124v-48z" fill="url(#pattern278)"/></g></g></g></g></g></g></g></svg>
